<svg width="126" height="128" viewBox="0 0 126 128" fill="none" xmlns="http://www.w3.org/2000/svg">
<path d="M83.625 127.391H48.375V122.984H83.625V127.391ZM125.401 78.9219C124.933 90.6259 120.83 100.071 112.018 106.929C102.654 114.199 87.7283 118.578 66 118.578C44.2717 118.578 29.3459 114.199 19.9854 106.929C11.1784 100.071 7.0691 90.626 6.60645 78.9219H125.401ZM57.3877 97.5508C56.6537 97.3535 55.8752 97.7403 55.5986 98.4658C55.3222 99.1915 55.6459 99.9987 56.3252 100.34L56.4658 100.401L57.1309 100.65C60.4179 101.856 63.1812 102.5 66 102.5C68.8188 102.5 71.5821 101.856 74.8691 100.65L75.5342 100.401C76.3081 100.106 76.6962 99.2399 76.4014 98.4658C76.1063 97.6919 75.2399 97.3038 74.4658 97.5986L73.835 97.834C70.73 98.9723 68.3373 99.5 66 99.5C63.6627 99.5 61.27 98.9723 58.165 97.834L57.5342 97.5986L57.3877 97.5508ZM35.5078 92.1748C34.6794 92.1748 34.0078 92.8464 34.0078 93.6748C34.008 94.503 34.6795 95.1748 35.5078 95.1748H46.5078C47.3359 95.1746 48.0076 94.5029 48.0078 93.6748C48.0078 92.8465 47.3361 92.175 46.5078 92.1748H35.5078ZM84.4922 92.1748C83.6638 92.1749 82.9922 92.8464 82.9922 93.6748C82.9924 94.503 83.664 95.1748 84.4922 95.1748H95.4922C96.3205 95.1748 96.9919 94.503 96.9922 93.6748C96.9922 92.8464 96.3206 92.1748 95.4922 92.1748H84.4922ZM61.4834 30.9492C60.9601 34.4739 58.8124 37.9161 56.8848 41.248C54.6816 45.1035 52.7812 48.9318 52.7812 50.2812C52.7813 53.9438 54.4888 56.0366 56.6367 58.46C58.7848 60.8834 61.5938 63.6377 61.5938 67.9062C61.5937 70.1094 60.9324 72.34 59.9961 74.5156H55.0391C56.2783 71.982 57.1875 69.476 57.1875 67.9062C57.1875 65.593 55.5901 63.9409 53.332 61.3799C51.0738 58.8463 48.375 55.431 48.375 50.2812C48.375 46.4258 50.8809 42.8453 53.084 39.0449C54.9015 35.878 56.5268 32.6558 57.0225 30.5078L61.4834 30.9492ZM72.499 32.0225C71.9483 35.5199 69.8008 38.77 67.873 41.8818C65.6699 45.4344 63.7969 48.9318 63.7969 50.2812C63.7969 53.9438 65.5044 56.0366 67.6523 58.46C69.8004 60.8834 72.6094 63.6377 72.6094 67.9062C72.6094 70.1094 71.948 72.34 71.0117 74.5156H66.0547C67.2939 71.982 68.2031 69.476 68.2031 67.9062C68.2031 65.593 66.6058 63.9409 64.3477 61.3799C62.0895 58.8463 59.3906 55.431 59.3906 50.2812C59.3906 46.4259 61.9239 43.0659 64.127 39.541C65.9721 36.6219 67.5699 33.6748 68.0381 31.6094L72.499 32.0225ZM83.4873 33.124C82.9641 36.5663 80.7607 39.6233 78.833 42.4873C76.6299 45.7645 74.8125 48.9318 74.8125 50.2812C74.8125 53.9438 76.52 56.0366 78.668 58.46C80.816 60.8834 83.625 63.6377 83.625 67.9062C83.625 70.1094 82.9637 72.34 82.0273 74.5156H77.0703C78.3096 71.982 79.2187 69.476 79.2188 67.9062C79.2188 65.593 77.6214 63.9409 75.3633 61.3799C73.1051 58.8463 70.4063 55.431 70.4062 50.2812C70.4062 46.4259 72.9951 43.2866 75.1982 40.0371C77.0158 37.3383 78.5855 34.6664 79.0537 32.6836L83.4873 33.124ZM101.471 26.0469L101.029 30.4531L0.792969 20.5283L1.22852 16.1436L101.471 26.0469ZM101.608 17.2646L100.892 21.6133L0.641602 4.5332L1.37988 0.1875L101.608 17.2646Z" fill="#D1535E"/>
</svg>
