<svg width="142" height="141" viewBox="0 0 142 141" fill="none" xmlns="http://www.w3.org/2000/svg">
<path d="M88.625 134.391H53.375V129.984H88.625V134.391ZM130.401 85.9219C129.933 97.6259 125.83 107.071 117.018 113.929C107.654 121.199 92.7283 125.578 71 125.578C49.2717 125.578 34.3459 121.199 24.9854 113.929C16.1784 107.071 12.0691 97.626 11.6064 85.9219H130.401ZM71 104.5C68.1812 104.5 65.4179 105.144 62.1309 106.35L61.4658 106.599C60.6919 106.894 60.3038 107.76 60.5986 108.534C60.8937 109.308 61.7601 109.696 62.5342 109.401L63.165 109.166C66.27 108.028 68.6627 107.5 71 107.5C73.3373 107.5 75.73 108.028 78.835 109.166L79.4658 109.401L79.6123 109.449C80.3463 109.647 81.1248 109.26 81.4014 108.534C81.6778 107.808 81.3541 107.001 80.6748 106.66L80.5342 106.599L79.8691 106.35C76.5821 105.144 73.8188 104.5 71 104.5ZM51.3555 98.7012L40.3975 99.6592C39.5724 99.7315 38.9622 100.459 39.0342 101.284C39.1064 102.109 39.8339 102.721 40.6592 102.648L51.6172 101.689C52.4424 101.617 53.0526 100.89 52.9805 100.064C52.9083 99.2392 52.1807 98.629 51.3555 98.7012ZM89.6436 98.7002C88.8185 98.6282 88.0907 99.2393 88.0186 100.064C87.9465 100.89 88.5576 101.617 89.3828 101.689L100.341 102.648C101.166 102.72 101.894 102.109 101.966 101.284C102.038 100.459 101.428 99.7316 100.603 99.6592L89.6436 98.7002ZM66.4834 37.9492C65.9601 41.4739 63.8124 44.9161 61.8848 48.248C59.6816 52.1035 57.7812 55.9318 57.7812 57.2812C57.7813 60.9438 59.4888 63.0366 61.6367 65.46C63.7848 67.8834 66.5938 70.6377 66.5938 74.9062C66.5937 77.1094 65.9324 79.34 64.9961 81.5156H60.0391C61.2783 78.982 62.1875 76.476 62.1875 74.9062C62.1875 72.593 60.5901 70.9409 58.332 68.3799C56.0738 65.8463 53.375 62.431 53.375 57.2812C53.375 53.4258 55.8809 49.8453 58.084 46.0449C59.9015 42.878 61.5268 39.6558 62.0225 37.5078L66.4834 37.9492ZM77.499 39.0225C76.9483 42.5199 74.8008 45.77 72.873 48.8818C70.6699 52.4344 68.7969 55.9318 68.7969 57.2812C68.7969 60.9438 70.5044 63.0366 72.6523 65.46C74.8004 67.8834 77.6094 70.6377 77.6094 74.9062C77.6094 77.1094 76.948 79.34 76.0117 81.5156H71.0547C72.2939 78.982 73.2031 76.476 73.2031 74.9062C73.2031 72.593 71.6058 70.9409 69.3477 68.3799C67.0895 65.8463 64.3906 62.431 64.3906 57.2812C64.3906 53.4259 66.9239 50.0659 69.127 46.541C70.9721 43.6219 72.5699 40.6748 73.0381 38.6094L77.499 39.0225ZM88.4873 40.124C87.9641 43.5663 85.7607 46.6233 83.833 49.4873C81.6299 52.7645 79.8125 55.9318 79.8125 57.2812C79.8125 60.9438 81.52 63.0366 83.668 65.46C85.816 67.8834 88.625 70.6377 88.625 74.9062C88.625 77.1094 87.9637 79.34 87.0273 81.5156H82.0703C83.3096 78.982 84.2187 76.476 84.2188 74.9062C84.2188 72.593 82.6214 70.9409 80.3633 68.3799C78.1051 65.8463 75.4063 62.431 75.4062 57.2812C75.4062 53.4259 77.9951 50.2866 80.1982 47.0371C82.0158 44.3383 83.5855 41.6664 84.0537 39.6836L88.4873 40.124ZM106.471 33.0469L106.029 37.4531L5.79297 27.5283L6.22852 23.1436L106.471 33.0469ZM106.608 24.2646L105.892 28.6133L5.6416 11.5332L6.37988 7.1875L106.608 24.2646Z" fill="#D1535E"/>
</svg>
